<svg id="hpwu-logo" viewBox="0 0 865.64 785.33"><path fill="var(--svg-fill-1)" d="M484.29,430,413.15,625.52h35.22l25.42-52.83.23,82.1H369l74.26-197.13h-43l-24.73,47V430Zm67.35-17.2h0Zm-232.58,2.5,23.46.17,23.45-.16c7.82-.17,15.64-.23,23.46-.52,15.63-.46,31.27-1.14,46.91-2.45-15.64-1.31-31.28-2-46.91-2.45-7.82-.29-15.64-.35-23.46-.52l-23.45-.17-23.46.18c-7.82.17-15.64.23-23.46.52-15.63.46-31.27,1.14-46.91,2.44,15.64,1.3,31.28,2,46.91,2.44C303.42,415,311.24,415.09,319.06,415.26Zm189.08-.49A134.46,134.46,0,0,0,526,412.3a132.83,132.83,0,0,0-17.81-2.47c-5.93-.46-11.87-.67-17.8-.67s-11.88.22-17.81.68a134.43,134.43,0,0,0-17.81,2.46,134.43,134.43,0,0,0,17.81,2.46c5.93.46,11.87.67,17.81.68S502.21,415.23,508.14,414.77Zm-35.32-22.62L459.14,390c-4.57-.61-9.13-1.33-13.73-1.83-9.17-1.11-18.38-2-27.7-2.3,8.88,2.85,17.86,5.08,26.87,7.11,4.5,1.06,9,1.91,13.56,2.86l13.61,2.52c9.1,1.59,18.24,2.91,27.41,4s18.39,2,27.7,2.29c-8.87-2.86-17.85-5.1-26.87-7.12S481.92,393.7,472.82,392.15Zm-94-16.09c-5.35-.92-10.74-1.64-16.17-2.11a114.25,114.25,0,0,0-16.47-.35,114.54,114.54,0,0,0,15.63,5.2c5.28,1.38,10.59,2.51,15.94,3.44s10.73,1.64,16.16,2.12a112.87,112.87,0,0,0,16.47.34,112.35,112.35,0,0,0-15.63-5.21Q386.81,377.44,378.78,376.06Zm134.74,10.17c-6.2-3.5-12.53-6.72-18.94-9.77s-12.91-5.92-19.53-8.52A184.14,184.14,0,0,0,454.77,361,185.33,185.33,0,0,0,473,372.35c6.2,3.5,12.53,6.72,18.93,9.78s12.91,5.92,19.53,8.52a180.85,180.85,0,0,0,20.29,6.94A183.55,183.55,0,0,0,513.52,386.23Zm13.74-7.91q-5.87-6.21-12.23-11.9T501.9,355.51a124,124,0,0,0-14.32-9.58,124,124,0,0,0,11,13.24q5.88,6.21,12.23,11.91T524,382a122.77,122.77,0,0,0,14.33,9.57A120.76,120.76,0,0,0,527.26,378.32Zm-17.78-78.14a215.78,215.78,0,0,0,7,22.18c2.63,7.27,5.55,14.41,8.63,21.48s6.35,14.06,9.89,20.93A215.54,215.54,0,0,0,546.52,385a215.73,215.73,0,0,0-7-22.18c-2.64-7.27-5.55-14.41-8.63-21.48s-6.36-14.05-9.91-20.92A219.16,219.16,0,0,0,509.48,300.18Zm92-1.95a34.18,34.18,0,0,0-3.22,5.33,33.3,33.3,0,0,0-2.21,5.81,21.88,21.88,0,0,0-.87,6.48,21.85,21.85,0,0,0,4.56-4.67,33.43,33.43,0,0,0,3.22-5.33,34.55,34.55,0,0,0,2.21-5.82,22.19,22.19,0,0,0,.87-6.47A22.09,22.09,0,0,0,601.45,298.23Zm-19.3,56c2.19-5.25,4.19-10.59,6-16a123.19,123.19,0,0,0,4.33-16.7,125.85,125.85,0,0,0-8.86,14.8q-3.93,7.62-7.22,15.5t-6,16a123.31,123.31,0,0,0-4.32,16.71,122.59,122.59,0,0,0,8.87-14.81C577.56,364.7,580,359.53,582.15,354.28Zm20.56,15Q609.07,363.34,615,357a127,127,0,0,0,11-13.58,128.13,128.13,0,0,0-14.39,10q-6.84,5.38-13.19,11.27t-12.27,12.27a125.81,125.81,0,0,0-11,13.58,126.88,126.88,0,0,0,14.4-10Q596.36,375.13,602.71,369.23Zm-5,22.3q4-1.87,7.91-4.16a50.17,50.17,0,0,0,7.41-5.22,50.69,50.69,0,0,0-8.78,2.26,86.29,86.29,0,0,0-8.29,3.32,85.13,85.13,0,0,0-7.91,4.16,50.17,50.17,0,0,0-7.41,5.22,49,49,0,0,0,8.78-2.26A82.8,82.8,0,0,0,597.72,391.53Zm26.1,9.86c6.48-1.19,12.93-2.54,19.32-4.21a157.81,157.81,0,0,0,19-5.91,159.77,159.77,0,0,0-19.87,1.11c-6.57.69-13.08,1.68-19.57,2.84s-12.92,2.53-19.31,4.19a156.3,156.3,0,0,0-19,5.93,158,158,0,0,0,19.88-1.11C610.83,403.54,617.34,402.56,623.82,401.39Zm71.72,8.76c-6.16-.24-12.33-.26-18.49-.38l-18.5,0-18.49.3c-6.17.23-12.33.33-18.49.67-12.33.56-24.65,1.33-37,2.74,12.34,1.21,24.67,1.79,37,2.16,6.17.24,12.34.25,18.5.38l18.5,0,18.49-.32c6.16-.22,12.33-.33,18.49-.67,12.33-.55,24.65-1.33,37-2.72C720.21,411.1,707.88,410.51,695.54,410.15Zm135.75,0c-4.53-.24-9.07-.26-13.6-.38l-13.6,0c-9.06.07-18.12.42-27.18,1s-18.12,1.33-27.17,2.74c9.08,1.21,18.15,1.79,27.22,2.16s18.14.51,27.2.4l13.59-.32c4.53-.22,9.06-.33,13.59-.67,9.06-.55,18.12-1.33,27.17-2.72C849.43,411.1,840.36,410.51,831.29,410.15Zm-61.78-38.79A221.21,221.21,0,0,0,746,373.13c-7.78.9-15.51,2.11-23.2,3.49s-15.35,3-23,4.85a221.09,221.09,0,0,0-22.64,6.59,221.2,221.2,0,0,0,23.52-1.77c7.78-.9,15.5-2.11,23.2-3.5s15.35-3,23-4.86A221,221,0,0,0,769.51,371.36Zm-112-12.65c-5.82,2.62-11.56,5.39-17.17,8.46a146.21,146.21,0,0,0-16.45,10.05,146.25,146.25,0,0,0,18.45-5.59c6-2.15,11.92-4.59,17.74-7.19s11.55-5.4,17.16-8.46a150.28,150.28,0,0,0,16.46-10.05,148.46,148.46,0,0,0-18.45,5.6C669.23,353.68,663.33,356.12,657.51,358.71ZM544.26,410c-1.34-.27-1.6.05-2.3,1.52a59.31,59.31,0,0,0-3.86,9.69c-.11.62-3.14,15.9-3.75,18.91l.08,0c-5.82,29-18.41,91.33-18.41,91.33s-1,.81-1.53,1.33c-.39.37-2,6.33-1.44,7.26.32.49,1.07,1.53,1.07,1.53l-2.92,14.25s-1.11,1-1.52,1.32-1.25,3.54-1.44,4.48c-.28,1.36-.25,1.29.51,2.46.23.34.72,1,.72,1l-4,20.18a10.82,10.82,0,0,0-2.35,2.12,28.08,28.08,0,0,0-1.27,5.88,25.37,25.37,0,0,0,1.51,3.2l-2.17,11h0c-1.1.39-2.77,1-3.09,2-.48,1.65-.93,3.58-1.41,5.49a7.19,7.19,0,0,0,1.16,5.76L495,630l-2.2,2a9.94,9.94,0,0,0-.94,4.29l.86,3L490.61,648a3.21,3.21,0,0,0,2.6,3.75l12.52,2.49a3.21,3.21,0,0,0,3.67-2.61l.6-2.45,1.8-1c.68-1,1.68-5.49,1.27-6.61l-1.86-2.37L514.73,620a23.84,23.84,0,0,0,2.76-2.72,18.49,18.49,0,0,0,1.1-4.33,3.48,3.48,0,0,0-.08-1.13l-1.22-4.06,2.81-20.29,1.3-1.11a4.09,4.09,0,0,0,1.36-2.34c.23-1.16.45-2.8.55-4a4.18,4.18,0,0,0-.64-2.55l-.81-1.08,3.53-21.27a8.9,8.9,0,0,0,1.75-1.44c.29-.58,1.17-4.59.85-5.16a11.45,11.45,0,0,0-1.28-1.45l4.36-26.42a21.45,21.45,0,0,1,1.78-2.32c.55-.54.94-5.21.57-6a16.78,16.78,0,0,1-.63-1.84s11.21-75.19,12.37-83.36c.36-2.32.63-4.05.67-4.25.54-2.95.3-7.83,0-11.21C545.75,410.48,545.53,410.27,544.26,410Zm75.83,220.48c-1.87-3.29-.86-8.11-1.5-11.54-1.19-6.37-4-7.62-5.49-16.94-.63-3.83-4.71-9.63-4.71-9.63s-4.58-18.53-6.1-26.33c-1.21-6.22-19.2-95.67-27.38-131.75L572,420.43c-.55-2.77-2.56-6.85-4.07-9.64-.41-.74-.69-1-2-.78s-1.29.52-1.35,1.53c0,.53-.06,1.11-.1,1.78a39.52,39.52,0,0,0,.27,8.77c.06.33,1.12,7.62,2.27,15.59,1,7.71,1.92,13.89,2.7,18.63,1,5.86,22.16,136.79,22.67,138.73,1,3.82-1.67,15.76.58,23.36,2.15,7.3,3.4,7.31,4,10.06s-.92,5.56-.63,14.65c.23,7.15,7.48,11.13,13.73,11.13,5.82,0,10.13-2.94,12.59-8.75C625.78,638.17,622.13,634.09,620.09,630.49Zm-54.85-1.78c-.34-1.16-.7-11.07-.78-11.23.15-4.67,0-14.66-.09-20.51a20.81,20.81,0,0,0,1.31-5.86,9.06,9.06,0,0,0-1.46-4.37c0-.88,0-1.64,0-2.06,0-.9,0-2.63,0-2.63,0-.83.86-3.72,1.07-4.75a88.9,88.9,0,0,1,1.32-9.09c.27-1.44-.74-2.86-1.12-3.54l-.82-3.1c-.31-.62-1.75-3.05-2.4-4L559.7,432.69h0c0-1.29-.29-15.45-.29-15.9a47.35,47.35,0,0,0-1.78-10c-.34-1.28-.7-1.41-1.84-1.41s-1.32,0-1.77,1.45c-.91,3-2,7.09-2,9.78,0,.47-.53,18.82-.55,20.22h0L548,558.38c-.79,0-2.36,2.76-2.94,3.29a4,4,0,0,0-1.24,2.52l1.33,10.69c.42,2,1.77,7.4,1.77,7.4l.52,9s-.23,8-.23,8.71l-3.06,2c0,.7,3.08,10.53,3.08,10.53l.73,16.1c-2.26,4.26-4.36,14-5.1,16.35-.4,1.31.35,2.42,1.24,3.47,1.77,2.08,1.58,7,4.29,7l5-.66c3.62,2.93,7-1.39,7.91-2.55,0,0,6.36-3.89,6.45-8.44C567.77,642,565.24,628.71,565.24,628.71ZM587,137.39c-.59.06-1.19.07-1.78.1-1.37.07-2.73.12-4.1.2-2.55.17-5.1.36-7.65.52s-5.22.31-7.83.46l-.72.06c-2.49.18-5,.38-7.47.53-2.84.18-5.7.32-8.54.48l-5.88.35c-1.72.11-3.44.21-5.16.34-1,.08-2,.2-3,.31a1.54,1.54,0,0,0-.17,0c-.12,0-.2.34-.13.46a9.52,9.52,0,0,0,1.89,1.86c2.08,1.78,4.16,3.56,6.27,5.3a4.59,4.59,0,0,1,1.73,3.2c0,.29.06.59.09.89.14,1.3.27,2.6.42,3.9.29,2.6.61,5.19.9,7.79.37,3.31.71,6.62,1.08,9.93q.58,5.4,1.2,10.81c.14,1.24.29,2.48.43,3.72.2,1.77.41,3.54.6,5.31.17,1.6.29,3.2.48,4.79a50,50,0,0,1,.3,7.13,13.87,13.87,0,0,1-.13,1.42,1.69,1.69,0,0,1-.45.95.68.68,0,0,1-.63.24,2.66,2.66,0,0,1-.67-.23,5.79,5.79,0,0,1-1.59-1.14l-2.75-2.54a.58.58,0,0,0-.33-.06c-.15,0-.26.2-.23.41s.06.47.11.7c1.18,6.13,2.37,12.25,3.53,18.38,1.06,5.61,2.09,11.22,3,16.86.22,1.47.37,2.95.53,4.42a7.46,7.46,0,0,1,0,1.25.44.44,0,0,1-.54.3,2.6,2.6,0,0,1-.45-.28,14.21,14.21,0,0,1-2-2.06c-.76-1-1.51-2-2.28-3-.29-.37-.59-.74-.9-1.1a.37.37,0,0,0-.31-.07.39.39,0,0,0-.22.23.65.65,0,0,0,0,.34l.69,8.36c.12,1.3.24,2.6.37,3.9.18,2,.37,3.91.55,5.86.29,3.32.55,6.64.84,9.95l.93,10.3c.13,1.43.26,2.85.38,4.27.17,1.89.33,3.79.49,5.68s.37,4,.55,6c.14,1.48.27,3,.4,4.44.16,1.9.32,3.79.49,5.69q.28,3.19.58,6.39c.17,1.9.33,3.79.5,5.69s.37,4,.55,6,.3,3.92.47,5.87c.12,1.42.27,2.84.4,4.26.2,2.07.4,4.14.58,6.22s.31,3.91.48,5.86c.12,1.42.24,2.85.37,4.27.17,1.77.38,3.54.54,5.32.36,4,.7,8.05,1,12.08.27,3.08.55,6.16.82,9.24a5.83,5.83,0,0,0,.14.58,1.58,1.58,0,0,0,.32-1.05c.07-2,.16-3.92.18-5.88,0-5.06.29-10.11.46-15.16,0-.47,0-.95.08-1.42.3-4.57.52-9.15.56-13.73,0-4,0-8.08.13-12.12s.21-7.85.35-11.77c.05-1.31.16-2.61.28-3.92.08-.82.21-1.65.36-2.47a5.67,5.67,0,0,1,.31-1,.84.84,0,0,1,1.32-.4,7.09,7.09,0,0,1,1.26,1,14.28,14.28,0,0,1,1.35,1.65c.39.53.72,1.09,1.07,1.65.47.75.92,1.52,1.39,2.28a4.05,4.05,0,0,0,.43.57.37.37,0,0,0,.31,0,.4.4,0,0,0,.21-.25c0-.89,0-1.78,0-2.67-.07-3-.18-6.07-.24-9.1-.12-6.3-.37-12.6-.33-18.9,0-3,.05-5.95.11-8.92,0-1.07.16-2.13.26-3.2a1.46,1.46,0,0,1,.34-.81.45.45,0,0,1,.48-.11,2,2,0,0,1,.57.41,9.92,9.92,0,0,1,.87,1.34,29.37,29.37,0,0,1,1.94,4.59c.74,2.13,1.46,4.27,2.19,6.41.15.45.29.91.45,1.35s.39.76.51.63a.8.8,0,0,0,.17-.64c0-.42,0-.83,0-1.25-.1-1.54-.23-3.08-.31-4.62-.24-4.81-.51-9.62-.68-14.44-.2-5.28-.32-10.58-.45-15.87-.08-3.32-.15-6.65-.19-10-.06-4.82-.09-9.64-.13-14.45a7.45,7.45,0,0,1,.08-1.06.37.37,0,0,1,.24-.23.35.35,0,0,1,.31.08,6.24,6.24,0,0,1,.53.71c1,1.61,2,3.22,3,4.85,1.57,2.59,3.11,5.2,4.68,7.79a16.58,16.58,0,0,0,1,1.48,2.28,2.28,0,0,0,2,.94,10.49,10.49,0,0,0,1.58-.19,58.35,58.35,0,0,0,11.68-3.78,15,15,0,0,0,4.54-3.11,23.85,23.85,0,0,0,3.75-4.51,3,3,0,0,1,.2-.29.85.85,0,0,1,.8-.3c.35.05.7.15,1.05.22,1,.19,2,.44,3,.57,1.35.18,2.72.26,4.08.41.94.1,1.89.22,2.83.37a5,5,0,0,1,1.84.62,1.72,1.72,0,0,1,.93,1.61c0,1.66,0,3.33,0,5-.11,9.75-.14,19.5.37,29.25.23,4.21.45,8.43.77,12.64a6.84,6.84,0,0,0,1.23,3.47,58,58,0,0,0,8.75,10.09q5,4.56,9.59,9.57c.28.3.57.61.88.89a2.66,2.66,0,0,0,2,.7,4.7,4.7,0,0,0,1.39-.27c1.51-.53,3-1,4.54-1.58a70,70,0,0,0,14.38-7c1.8-1.16,3.55-2.4,5.23-3.71a4,4,0,0,0,1.62-3.23c0-.95,0-1.9,0-2.86-.07-11.12-.12-22.23-.21-33.35,0-3.09-.15-6.19-.28-9.28-.16-3.68-.37-7.36-.55-11-.16-3.21-.34-6.41-.46-9.62a7.92,7.92,0,0,0-1.71-4.78c-1.1-1.4-2.17-2.83-3.31-4.2a31.53,31.53,0,0,0-2.44-2.6c-2.68-2.53-5.27-5.16-7.78-7.86-.44-.48-.91-.94-1.37-1.4a3.23,3.23,0,0,0-1.2-.74,3.62,3.62,0,0,0-3.25.3c-.62.37-1.23.73-1.82,1.12a136.49,136.49,0,0,1-12.31,7.21,79.67,79.67,0,0,0-10.13,6.31c-.34.24-.68.48-1,.74a3.13,3.13,0,0,0-1.12,1.78c-.11.52-.22,1-.31,1.57-.17,1-.32,2-.49,3a8.57,8.57,0,0,1-.18.88c-.1.43-.38.61-.77.49s-.68-.24-1-.32c-.81-.18-1.62-.39-2.44-.5-1.42-.18-2.84-.29-4.26-.44-.82-.1-1.65-.21-2.47-.35a7.93,7.93,0,0,1-1.37-.38.81.81,0,0,1-.59-.81c0-.71,0-1.43.12-2.13q.69-5.4,1.43-10.78c.42-3.13.7-6.27.88-9.41.26-4.63.41-9.27.29-13.91-.12-4.1-.17-8.2-.26-12.3,0-.9,0-1.79,0-2.68a8.44,8.44,0,0,0-1.59-4.84L608,163c-1.37-2-2.76-4-4.11-6.05q-5.75-8.59-11.46-17.22c-.3-.45-.62-.88-.89-1.34s-.48-1-1.1-1.06C589.44,137.33,587.22,137.37,587,137.39Zm47.1,96.66c0-1,0-1.9,0-2.85a6.22,6.22,0,0,1,.06-1.06,2,2,0,0,1,1.28-1.6,7.27,7.27,0,0,1,1.36-.39c2.05-.37,4.1-.71,6.14-1.07l7.37-1.29a7.88,7.88,0,0,1,1.94-.18,1.13,1.13,0,0,1,1,.69,5.89,5.89,0,0,1,.47,1.9c.26,2.77.53,5.55.77,8.33q.3,3.65.56,7.29.22,3.47.38,6.94c.41,10,.64,20.06.47,30.1,0,.78-.05,1.55-.07,2.32a5.71,5.71,0,0,1-.33,1.74,3.67,3.67,0,0,1-1.77,2.15c-.36.2-.72.4-1.09.59l-6.81,3.5c-.37.19-.75.37-1.13.53a2.2,2.2,0,0,1-2.48-.44c-.35-.31-.67-.66-1-1-1.39-1.46-2.75-3-4.18-4.39a7.46,7.46,0,0,1-2.15-4.76c0-.35,0-.71,0-1.07q-.16-12.11-.34-24.23h0Zm-65.65-72.23q-.08-4.45-.13-8.91c0-.36,0-.71,0-1.07,0-.81.3-1.11,1.06-1.09,1.19,0,2.38.06,3.57.11l5.52.23,6.23.29c.24,0,.47,0,.71.07a1.11,1.11,0,0,1,1,.91,5.69,5.69,0,0,1,.12.7c0,.3,0,.59,0,.89q.22,6.86.44,13.72c.17,4.87.36,9.74.54,14.61,0,.36,0,.71,0,1.07q.24,8,.49,16c.1,3.2.23,6.41.34,9.62,0,.53,0,1.07,0,1.6a2,2,0,0,1-1.87,2,6.55,6.55,0,0,1-.89,0c-3,0-5.94.23-8.89.54q-2.75.3-5.46.85c-.46.09-.93.14-1.4.2a.56.56,0,0,1-.53-.4,4.35,4.35,0,0,1-.1-.52c0-.41,0-.83-.06-1.25q-.23-14.88-.44-29.77h0Zm66.68,57.07a2.91,2.91,0,0,1,1-2.22,16,16,0,0,1,1.5-1.25c1-.78,2.12-1.53,3.18-2.29l5.06-3.63c.38-.28.77-.56,1.16-.82a3,3,0,0,1,.49-.2.62.62,0,0,1,.81.65,3.21,3.21,0,0,1-.11.52,32.83,32.83,0,0,1-2.32,5.38,17.82,17.82,0,0,1-2.73,3.72,33.29,33.29,0,0,1-4.14,3.64,7,7,0,0,1-2,1.1,1.18,1.18,0,0,1-1.44-.72,4.94,4.94,0,0,1-.13-.52l-.33-2.46h.06Zm-56,1.48q3.48.72,7,1.47a4.57,4.57,0,0,1,1,.35,1.12,1.12,0,0,1,.56,1.5,2.83,2.83,0,0,1-.33.62c-.86,1.14-1.73,2.26-2.61,3.39a3.94,3.94,0,0,1-.5.5,1.27,1.27,0,0,1-1.77,0,4.63,4.63,0,0,1-.6-.65q-2-2.85-3.93-5.72a2.85,2.85,0,0,1-.29-.64.7.7,0,0,1,.62-.89h.28A5.88,5.88,0,0,1,579.16,220.37Zm283.24-1.85c-.08-.08-.23-.14-.25-.23a11.38,11.38,0,0,0-1.08-2.63l-6-11.94L850.65,195a7.35,7.35,0,0,0-1-1.68,1.45,1.45,0,0,0-1.44-.49,3.1,3.1,0,0,0-.84.29c-.53.27-1.05.56-1.55.88-1.76,1.11-3.51,2.24-5.26,3.36a4.51,4.51,0,0,1-1.44.67,1.15,1.15,0,0,1-1.31-.67,8.31,8.31,0,0,1-.39-1.91c-.12-1.43-.24-2.85-.4-4.26-.1-.83-.26-1.65-.42-2.46-.06-.31-.62-.49-.89-.34a5.85,5.85,0,0,0-1.46,1.3q-1.56,1.83-3.11,3.68L818,209.06l-.56.69a4.31,4.31,0,0,0-.26.47.7.7,0,0,0,.33.91,3.91,3.91,0,0,0,.83.3c.7.13,1.41.21,2.11.34a2,2,0,0,1,1.73,1.57,9.47,9.47,0,0,1,.27,2.12c0,2,0,3.92.08,5.88q.28,14.35.57,28.71c.08,3.93.11,7.85.18,11.77q.24,12,.5,24.08a29.73,29.73,0,0,1-.61,6.91,21.07,21.07,0,0,1-2.11,5.84,15.84,15.84,0,0,1-7.66,7.19,5.8,5.8,0,0,0-.78.41c-.08.05-.11.19-.13.29s0,.12.1.14a9.1,9.1,0,0,0,1,.37,189.42,189.42,0,0,0,19.83,4.34c2.7.42,5.41.82,8.13,1,2,.15,3.91.4,5.86.53,1.48.1,3,.09,4.45.13.16,0,.23-.08.2-.23a.26.26,0,0,0-.06-.14c-.41-.24-.81-.49-1.24-.7a23,23,0,0,1-4.09-2.52,14.87,14.87,0,0,1-5.55-8.68c-.3-1.33-.55-2.68-.73-4a83.47,83.47,0,0,1-.73-9.6q-.17-7.67-.29-15.34L839,250.45l-.36-21c-.09-5.41-.19-10.82-.27-16.23,0-.77.06-1.54.09-2.31a3,3,0,0,1,.72-1.79,2.86,2.86,0,0,1,4-.63,2.66,2.66,0,0,1,.72.77,3.32,3.32,0,0,1,.35.82q2.54,7.6,5.07,15.22c.71,2.11.65,3-.68,5-.56.84-1.12,1.68-1.65,2.54a10.63,10.63,0,0,0-.78,1.4,2.68,2.68,0,0,0-.14,2.08.69.69,0,0,0,.7.43,2.05,2.05,0,0,0,.66-.22c.44-.31.86-.64,1.27-1a92.92,92.92,0,0,0,8.29-7.83,82.28,82.28,0,0,0,5.48-6.31Zm-659.49,34.1a16.44,16.44,0,0,0,2.83,6.48,38.29,38.29,0,0,0,6.81,7.51,58.86,58.86,0,0,0,11.28,7.47c2.27,1.17,4.6,2.23,6.9,3.33.64.31,1.28.62,1.94.89a1.26,1.26,0,0,1,.81,1.26c0,.83,0,1.67,0,2.5v47.63c0,.59-.05,1.19-.05,1.78a4.91,4.91,0,0,1-2,4c-1.82,1.52-3.57,3.14-5.35,4.72-.49.43-1,.87-1.45,1.32a3.3,3.3,0,0,0-.41.57.49.49,0,0,0,.2.61,3.37,3.37,0,0,0,.68.22,13.36,13.36,0,0,0,1.42.1c3.44.13,6.89.22,10.34.37,2.37.1,4.75.27,7.12.42a4.29,4.29,0,0,1,.71.08c2.16.38,4.33.74,6.49,1.16s4.18.9,6.27,1.35a8.46,8.46,0,0,0,.88.11.46.46,0,0,0,.37-.51,1.87,1.87,0,0,0-.2-.48c-.37-.47-.77-.91-1.15-1.36l-4-4.6a5.6,5.6,0,0,1-1.36-3.24c-.05-.71-.08-1.42-.08-2.14,0-4.22,0-8.44,0-12.66q0-20.25,0-40.5c0-.65,0-1.3,0-2a6.56,6.56,0,0,1,.09-.88.84.84,0,0,1,.67-.75,43.8,43.8,0,0,0,10.42-4.07c.69-.35,1.38-.71,2.07-1a38.37,38.37,0,0,0,5.51-3.29q1.95-1.41,3.91-2.81c1.06-.76,2.14-1.5,3.22-2.23a6.11,6.11,0,0,1,.95-.49.78.78,0,0,1,1.08.6c.06.71.1,1.43.1,2.14q0,10.69,0,21.4,0,21.15,0,42.28a50.85,50.85,0,0,1-.68,8.53,39.1,39.1,0,0,1-2.69,9,15.25,15.25,0,0,1-5.45,6.67c-.45.3-.88.61-1.31.93a7.69,7.69,0,0,0-.83.68,3.14,3.14,0,0,0-.85,1.34,1.16,1.16,0,0,0,.92,1.61,6.67,6.67,0,0,0,1.41.13c2.08-.09,4.16-.08,6.24-.31,1.77-.2,3.55-.35,5.33-.43a125,125,0,0,1,12.84.12,27.81,27.81,0,0,1,6.47,1.16c1.25.38,2.52.72,3.78,1.05a8.8,8.8,0,0,0,2.28.4,3.47,3.47,0,0,0,1.7-.44,1.19,1.19,0,0,0,.53-1.23,1.84,1.84,0,0,0-.46-1c-.36-.39-.74-.78-1.13-1.14-1.05-1-2.13-1.9-3.17-2.87a16.86,16.86,0,0,1-4-5.65,24.57,24.57,0,0,1-2-8.26c-.14-2.08-.19-4.16-.19-6.24q0-23,0-46,0-17.13,0-34.26c0-1.48.1-3,.19-4.45a11.67,11.67,0,0,1,.31-1.75,3.3,3.3,0,0,1,2.54-2.69c.92-.24,1.84-.47,2.77-.67q6.88-1.52,13.76-3c2.49-.53,5-1,7.5-1.54a5.35,5.35,0,0,1,1.06,0c.25,0,.46.48.32.71a2.2,2.2,0,0,1-.3.43c-.34.33-.7.65-1,1l-4.67,4.14a15.73,15.73,0,0,0-2.5,2.78,10,10,0,0,0-1.86,4.95,19.48,19.48,0,0,0,.06,4.45q.33,2.47.81,4.92c.76,3.91,1.52,7.82,2.35,11.71,1.09,5.12,2.21,10.23,3.51,15.29.33,1.26.66,2.53,1,3.79a7.92,7.92,0,0,0,1.66,3.12,5.63,5.63,0,0,0,3.66,2,7.88,7.88,0,0,0,3.51-.32,12.19,12.19,0,0,0,2.73-1.29l6.4-3.89a11.9,11.9,0,0,1,1.57-.85,3.51,3.51,0,0,1,1.21-.23.92.92,0,0,1,.88.5,7.38,7.38,0,0,1,.52,1.32c.18.63.27,1.28.44,1.91a6,6,0,0,0,.74,1.81,3,3,0,0,0,1.81,1.34,6.32,6.32,0,0,0,4.84-.53,11.86,11.86,0,0,0,2.48-1.73,21.55,21.55,0,0,0,2.93-3.11,50,50,0,0,1,5.88-6.45q2.42-2.26,4.78-4.56a11.84,11.84,0,0,0,.95-1.05.47.47,0,0,0-.28-.7c-.36,0-.71-.06-1.07-.06-.71,0-1.42,0-2.14,0a3,3,0,0,1-2.75-1.93,11.82,11.82,0,0,1-.39-1.19,12.14,12.14,0,0,1-.37-3.18c-.07-3.56-.16-7.13-.21-10.7-.08-5.65-.1-11.29-.21-16.94-.16-8.74-.28-17.48-.25-26.22,0-1.37,0-2.74-.05-4.11a18.2,18.2,0,0,0-3.28-10,32.89,32.89,0,0,0-2.57-3.19c-4.25-4.74-8.64-9.34-12.71-14.24a10.07,10.07,0,0,0-1.17-1.09,2,2,0,0,0-1.17-.4,3.49,3.49,0,0,0-1.57.22c-.61.24-1.21.5-1.8.79-1.27.64-2.53,1.31-3.79,2-3.56,1.91-7.11,3.85-10.54,6-1.32.81-2.6,1.67-3.88,2.54a11.56,11.56,0,0,0-2.69,2.58,7.82,7.82,0,0,0-1.36,7.25,16.55,16.55,0,0,0,1.1,2.81,103.27,103.27,0,0,0,6.17,10.64,10.68,10.68,0,0,0,.63.87,2.57,2.57,0,0,0,.52.47,1,1,0,0,0,1.61-.5,2.6,2.6,0,0,0,.19-1c0-1.07-.06-2.14-.09-3.21,0-.53-.05-1.06-.05-1.6a5.35,5.35,0,0,1,1.91-4.25c.4-.35.8-.71,1.21-1q3.9-3.27,8-6.28c.57-.42,1.16-.82,1.76-1.21a5.81,5.81,0,0,1,1.46-.65,2.13,2.13,0,0,1,2.27.63,4,4,0,0,1,.85,1.35,15.92,15.92,0,0,1,.47,1.53,23,23,0,0,1,.63,4.59q.22,3.74.37,7.48c.19,4.75.35,9.51.52,14.26l0,.71q.31,9.63.62,19.26c0,1.48,0,3,.11,4.46.25,6,.23,12,.32,18,0,1.13-.06,2.26-.15,3.38a11.47,11.47,0,0,1-.8,3.46,4.46,4.46,0,0,1-1.37,1.84A9.61,9.61,0,0,1,342,286.9a6.05,6.05,0,0,1-1.94.16,1.57,1.57,0,0,1-1.32-.81,9.46,9.46,0,0,1-.79-1.78c-.31-1-.58-2.06-.79-3.11-.56-2.8-1.08-5.6-1.63-8.4-1-4.84-1.94-9.67-2.88-14.51q-.72-3.76-1.1-7.59c-.08-.82-.08-1.66-.1-2.49a3.66,3.66,0,0,1,1.23-2.86c.69-.65,1.41-1.27,2.15-1.87,2.07-1.7,4.15-3.38,6.22-5.07.56-.45,1.1-.91,1.63-1.39a3,3,0,0,0,.57-.67,1.05,1.05,0,0,0-.26-1.44,2,2,0,0,0-1.14-.47c-.47,0-.94-.08-1.42-.09-7.26-.21-14.5.19-21.75.52l-.36,0-3.55.25-1.78.14-6.22.54a38.37,38.37,0,0,0-7.38,1.19,2.33,2.33,0,0,1-.69.12.59.59,0,0,1-.42-.26,1.61,1.61,0,0,1-.19-.67c0-1.25-.05-2.5,0-3.75,0-4.81.09-9.63.1-14.45q.06-17.92.08-35.85c0-3.63,0-7.26,0-10.89a2.59,2.59,0,0,1,.64-1.79c.82-.94,1.62-1.9,2.43-2.85,1.39-1.63,2.79-3.25,4.17-4.88a9.38,9.38,0,0,0,.81-1.17.51.51,0,0,0-.34-.69c-.65,0-1.31,0-2,0-1.06.09-2.12.23-3.19.35-3.37.36-6.74.64-10.14.67-.89,0-1.78.07-2.67.1-1.9.06-3.8.15-5.7.18-2.5,0-5,0-7.5,0-.47,0-.95,0-1.42.07a.81.81,0,0,0-.59,1.09,5.6,5.6,0,0,0,1.21,1.75c1.31,1.46,2.62,2.92,3.95,4.37,1.59,1.72,1.37,1.62,1.37,3.65q0,37.19,0,74.39c0,.47,0,.95,0,1.42a1.46,1.46,0,0,1-.5,1.1c-.4.37-.8.71-1.21,1.06L270.9,256c-1.83,1.52-3.66,3-5.52,4.52a55.31,55.31,0,0,1-6.6,4.56,34.58,34.58,0,0,1-5.12,2.49c-.28.1-.57.18-.85.25a.55.55,0,0,1-.66-.44c0-.65-.09-1.3-.09-1.95q0-15.52,0-31,0-25,0-50c0-1,0-2,0-3a4.28,4.28,0,0,1,1-2.79c.45-.55.92-1.09,1.38-1.64l2.53-3a1.47,1.47,0,0,0,.36-.8.54.54,0,0,0-.24-.44,1.52,1.52,0,0,0-.5-.15c-.77,0-1.54,0-2.31,0l-23.2,0c-1,0-2-.05-3-.07a5,5,0,0,0-1.59.13.59.59,0,0,0-.32.57,1,1,0,0,0,.3.63c.71.71,1.42,1.44,2.16,2.13s1.7,1.48,2.54,2.23a6.44,6.44,0,0,1,2.25,4.51c.07,1.19.11,2.38.11,3.57q0,12.48-.07,25,0,26.06-.1,52.09c0,1.55,0,3.09,0,4.64,0,.35-.05.71-.09,1.06a.73.73,0,0,1-.53.42,13.75,13.75,0,0,1-1.58-.29,31.06,31.06,0,0,1-9-4.11,103.21,103.21,0,0,1-11.65-9.4,6.75,6.75,0,0,1-.72-.79,1.56,1.56,0,0,1-.3-1,2.31,2.31,0,0,1,.55-1.48,10.59,10.59,0,0,1,1-1,58.53,58.53,0,0,1,6.62-5.13l1.19-.78a2,2,0,0,0,.41-.35.3.3,0,0,0-.17-.5,12.67,12.67,0,0,0-3.2.13,38.07,38.07,0,0,0-9.59,2.66c-.33.14-.65.29-1,.46a4.52,4.52,0,0,0-2.26,2.63c-.14.39-.25.8-.37,1.22C202.73,251.94,202.85,252.27,202.91,252.62Zm203.31,46.24c-1.72,0-3.45-.07-5.17-.15a5.59,5.59,0,0,0-4.24,1.49c-1.81,1.64-3.66,3.22-5.5,4.83a10,10,0,0,0-2.37,3.09q-2.37,4.8-4.71,9.6a11.34,11.34,0,0,0-.58,1.5,1.46,1.46,0,0,0,.24,1.35,3.81,3.81,0,0,0,.73.77,17.89,17.89,0,0,0,1.65,1.07,68.38,68.38,0,0,0,22.3,8.18c2.87.49,5.73,1,8.6,1.51,3.34.58,6.68,1.14,10.06,1.4,1.42.11,2.84.27,4.26.41,1.89.18,3.78.37,5.68.54s3.91.31,5.86.48c3.67.31,7.35.62,11,.95.88.07,1.77.18,2.66.26s2,.18,3,.24a8.59,8.59,0,0,0,1.24-.07,1.56,1.56,0,0,0,.95-.46,8,8,0,0,0,.92-1.08c.34-.48.64-1,.94-1.51,6.75-11.82,13.46-23.66,20.26-35.45q9.94-17.24,18.27-35.29c4-8.74,7.93-17.54,11.77-26.37q4.75-11,9.46-21.93c.33-.77.62-1.55.88-2.34a1,1,0,0,0-.71-1.25,6.53,6.53,0,0,0-1.75-.28c-2.74-.15-5.47-.29-8.2-.45l-6.58-.42-6.41-.37a2.76,2.76,0,0,0-.7.06.4.4,0,0,0-.22.24.41.41,0,0,0,0,.33c.33.34.67.67,1,1,.91.76,1.82,1.52,2.75,2.27a3,3,0,0,1,1.07,3.19c-.13.58-.28,1.15-.45,1.72-.58,1.87-1.16,3.74-1.77,5.61-1.42,4.41-3.13,8.72-4.79,13.05q-4.86,12.65-10.09,25.14c-.32.77-.67,1.52-1,2.27a2.75,2.75,0,0,1-.54.69.67.67,0,0,1-1.06-.15,10.64,10.64,0,0,1-.44-1.35c-.16-.7-.28-1.4-.4-2.1-.54-3-1.09-6.09-1.62-9.13s-1.07-6.08-1.6-9.13-1.07-6.08-1.6-9.13-1-5.85-1.52-8.78c-.05-.29-.06-.59-.1-.88a3,3,0,0,1,1.4-3.22,25.57,25.57,0,0,0,2.06-1.71.64.64,0,0,0,.28-.6c0-.18-.26-.34-.56-.34-.59,0-1.19,0-1.78,0l-8.55.47c-1.6.09-3.21.18-4.81.29-1.24.08-2.49.17-3.73.27a3.22,3.22,0,0,0-.68.17.63.63,0,0,0-.32.75,1.68,1.68,0,0,0,.27.45c.46.48.91,1,1.4,1.38a6.75,6.75,0,0,1,2.18,4c.38,2.05.81,4.08,1.25,6.12q1.88,8.79,3.78,17.59c1.36,6.28,2.73,12.54,4.07,18.82.63,2.9,1.21,5.81,1.84,8.72a7.19,7.19,0,0,1-.78,5.33c-.15.26-.27.53-.41.79-.53,1-1.05,2-1.59,3l-19.12,35.07c-.2.36-.39.73-.61,1.09a8.52,8.52,0,0,1-.61.87,2.51,2.51,0,0,1-1.81,1,11.53,11.53,0,0,1-1.95.05c-1.37-.08-2.73-.22-4.09-.34l-7.1-.67-5-.47c-1.65-.17-3.31-.36-5-.52l-5.15-.49-6.92-.66-5-.47-5.86-.55c-1.36-.13-2.72-.25-4.08-.4a5,5,0,0,1-1.2-.32,1.72,1.72,0,0,1-1-1.35,3.29,3.29,0,0,1,.07-1.59,8.39,8.39,0,0,1,.3-.84c.9-2.14,1.79-4.27,2.7-6.4a14.82,14.82,0,0,1,.83-1.58,4.05,4.05,0,0,1,1.67-1.56l.81-.38,7.44-3.44c1.08-.5,2.16-1,3.23-1.5a5.68,5.68,0,0,0,.9-.57.48.48,0,0,0-.05-.75,2.56,2.56,0,0,0-1.2-.32l-6.76-.35c-.3,0-.6,0-.89,0C407.17,298.87,406.69,298.88,406.22,298.86Zm355.86,10.39-7.84-.33a9.72,9.72,0,0,0-1.43.05,1.79,1.79,0,0,0-.64.27.59.59,0,0,0-.15.78,1.72,1.72,0,0,0,.84.64,11,11,0,0,0,2.59.61l9.69,1.51a5.56,5.56,0,0,1,1.86.56,1,1,0,0,1,.46,1.23,6.19,6.19,0,0,1-.75,1.2c-1.19,1.49-2.41,3-3.62,4.42a6.65,6.65,0,0,1-.73.77,2.17,2.17,0,0,1-2.32.47,15.69,15.69,0,0,1-1.61-.75l-7.84-4.24c-1-.54-2-1.09-3-1.65a9.48,9.48,0,0,1-1.2-.78,2.6,2.6,0,0,1-1.08-2c-.1-1.49-.23-3-.26-4.45q-.21-12-.37-23.91c-.08-5.47-.11-10.94-.19-16.41q-.25-16.5-.53-33l-.3-18.9c0-1.73-.05-3.45-.07-5.18a7.09,7.09,0,0,1,.28-2.29,1.56,1.56,0,0,1,1.22-1.16,14.19,14.19,0,0,1,1.94-.29c2.19-.17,4.39-.29,6.58-.45.77-.06,1.54-.18,2.3-.31a1.4,1.4,0,0,0,1.2-1.35,20.31,20.31,0,0,0-.06-3.74,2,2,0,0,0-.07-.35,1.54,1.54,0,0,0-.93-1,5.54,5.54,0,0,0-1.93-.28l-4.28-.05-3.57,0a7.5,7.5,0,0,1-2.11-.33,1.39,1.39,0,0,1-.87-.84,2.2,2.2,0,0,1-.13-.52,20.19,20.19,0,0,1-.3-3q-.23-7.21-.47-14.44c-.1-3-.21-5.94-.31-8.92,0-.29,0-.59-.06-.88a1,1,0,0,0-.11-.34.52.52,0,0,0-.26-.21.39.39,0,0,0-.32.09,12.81,12.81,0,0,0-.9,1.32c-2.15,3.7-4.44,7.32-6.77,10.91a75.75,75.75,0,0,1-5.39,7.32q-5.12,6.07-10.27,12.11c-.85,1-1.72,2-2.57,3a9.72,9.72,0,0,0-.7,1,.46.46,0,0,0,.23.59,4.37,4.37,0,0,0,.86.23c.59,0,1.18.07,1.78.08,1.66,0,3.33,0,5,.05a10.7,10.7,0,0,1,1.6.15,1.48,1.48,0,0,1,1.16,1,5.53,5.53,0,0,1,.32,2.1q.13,7.22.28,14.44.18,10.35.35,20.7c.12,7.61.25,15.22.35,22.83q.21,14,.37,28c.05,3.81.08,7.61.13,11.42,0,.54,0,1.07,0,1.6A3.2,3.2,0,0,0,729,311l.94.52,2.68,1.42,25.15,13.45c.84.45,1.7.85,2.55,1.26a5.37,5.37,0,0,0,.83.34,2.25,2.25,0,0,0,2.46-.57,13.41,13.41,0,0,0,1-1.23c.49-.67.94-1.37,1.4-2.06,1.91-2.87,3.84-5.73,5.72-8.63a9.9,9.9,0,0,1,3.87-3.59,12.72,12.72,0,0,0,1.35-.85.74.74,0,0,0,.37-.58c0-.18-.3-.46-.64-.52s-.47-.07-.7-.09l-8.2-.39c-1.07-.05-2.14-.06-2.92-.08C763.74,309.35,762.91,309.29,762.08,309.25ZM713.41,185.42a1.76,1.76,0,0,0-1.41-1.63,5.66,5.66,0,0,0-1.58-.2l-4.64-.07a9.79,9.79,0,0,1-2.47-.32,1.44,1.44,0,0,1-1-.92,9.29,9.29,0,0,1-.37-1.74,17.41,17.41,0,0,1-.08-1.78c0-3.27-.07-6.54-.12-9.81,0-2.67-.08-5.35-.12-8a2.81,2.81,0,0,0-.18-1.22c-.06-.13-.33-.26-.45-.19a1.44,1.44,0,0,0-.44.28c-.38.45-.75.92-1.11,1.39a66.67,66.67,0,0,1-8.35,9.26c-1.22,1.13-2.44,2.27-3.64,3.42-1.8,1.73-3.57,3.49-5.37,5.22-4,3.84-8.06,7.57-12.2,11.23l-1.07,1c-.13.12-.24.26-.36.39a.49.49,0,0,0,.25.83,22.19,22.19,0,0,0,2.3.27c1.54.07,3.09.07,4.63.13,2.2.09,4.39.21,6.59.33a2.06,2.06,0,0,1,2.12,2,9.43,9.43,0,0,1,.07,1.06c0,.66,0,1.31,0,2q.11,49.84.23,99.7c0,.66,0,1.31,0,2a9.49,9.49,0,0,0,.14,1.42,2.88,2.88,0,0,0,1.17,1.93c.38.28.77.57,1.16.84l18.47,12.79c.63.44,1.29.85,1.93,1.28a2.33,2.33,0,0,0,1.86.37.91.91,0,0,0,.68-1.23,2.82,2.82,0,0,0-.43-.78,13.57,13.57,0,0,0-1-1l-7.31-7.32c-.29-.3-.58-.6-.88-.89a3,3,0,0,1-.91-2.07c0-.65,0-1.3,0-2q.21-10.15.44-20.33.22-10.52.46-21l.06-2c.19-6.18.39-12.36.56-18.54.18-6.36.33-12.72.49-19.08,0-.23,0-.47,0-.71l.6-19.61c.06-2.14.12-4.28.2-6.42a12.06,12.06,0,0,1,.16-1.59,1.59,1.59,0,0,1,1-1.2,3.07,3.07,0,0,1,.85-.24c.47-.05.94,0,1.42-.05,1.49,0,3-.06,4.46-.12.71,0,1.42-.1,2.12-.2a1.47,1.47,0,0,0,1.17-1.21,6.49,6.49,0,0,0,.05-.88c0-.6,0-1.19,0-1.36C713.53,187.32,713.49,186.37,713.41,185.42ZM762.32,248c0,1.19-.09,2.37-.12,3.56q-.27,10.51-.53,21c0,1.78-.1,3.57-.17,5.35a6.72,6.72,0,0,0,1.54,4.62c1.18,1.49,2.29,3,3.4,4.58,1.8,2.51,3.58,5.05,5.37,7.56.65.92,1.33,1.83,2,2.73a5.46,5.46,0,0,0,3.58,2.12c1.47.27,3,.37,4.43.5,2.13.18,4.27.26,6.41.34a3.38,3.38,0,0,0,2.94-1.4c.4-.52.78-1.05,1.15-1.58L803,282c.24-.34.48-.68.69-1a2.93,2.93,0,0,0,.29-2.4,8.31,8.31,0,0,0-1.11-2.23q-2.77-4.15-5.57-8.29c-.1-.15-.2-.29-.31-.43l-.25-.26a.67.67,0,0,0-1.16.15c-.21.56-.39,1.12-.55,1.69l-6.09,22.54a12.92,12.92,0,0,1-.47,1.53,3.41,3.41,0,0,1-.58.89.81.81,0,0,1-1.12.15,10.58,10.58,0,0,1-1.07-.94c-2-2.13-3.95-4.28-5.93-6.42-.24-.26-.47-.54-.69-.82a4,4,0,0,1-.82-1.95c-.12-1.06-.29-2.12-.32-3.19-.18-5.28-.32-10.57-.46-15.86q-.3-10.26-.57-20.51c0-.71,0-1.42,0-2.13a4.62,4.62,0,0,1,.18-1,1.07,1.07,0,0,1,1-.82,8.75,8.75,0,0,1,2.65.25c2.82.73,5.64,1.43,8.47,2.13s5.77,1.42,8.65,2.11a10.67,10.67,0,0,0,1.59.22,2.15,2.15,0,0,0,1.78-.66,13.37,13.37,0,0,0,1.38-1.63c1.94-2.85,3.84-5.73,5.77-8.58a4.22,4.22,0,0,0,.69-3.38,28.4,28.4,0,0,0-1-3.61q-2.71-8-5.45-16c-.31-.9-.61-1.8-.91-2.71a5.49,5.49,0,0,0-2.41-3l-.6-.38c-2.67-1.67-5.35-3.33-8-5-1.51-1-3-1.93-4.5-2.89-.55-.35-1.11-.69-1.68-1a2.62,2.62,0,0,0-3,.16,16.49,16.49,0,0,0-1.54,1.22c-.93.83-1.85,1.68-2.74,2.56-3.84,3.8-7.67,7.63-11.5,11.44-.34.34-.68.67-1,1a4.55,4.55,0,0,0-1.15,2.38,22.53,22.53,0,0,0-.31,3.19q-.06,3.12-.16,6.24-.3,10-.62,20c0,1.13-.05,2.26-.07,3.39Zm15.95-38.64a8.57,8.57,0,0,1,.26-1.57,2.23,2.23,0,0,1,.74-1.2,4.51,4.51,0,0,1,3.46-1.09,1.56,1.56,0,0,1,1.3.83c.42.79.84,1.58,1.19,2.4,1.4,3.34,2.78,6.69,4.17,10l5.73,13.83c.25.61.46,1.22.68,1.84a2.93,2.93,0,0,1,.13.51,1,1,0,0,1-.82,1.18,5.14,5.14,0,0,1-1.24,0c-1.36-.17-2.71-.38-4.06-.59-2.69-.42-5.39-.86-8.09-1.3-.7-.11-1.41-.22-2.1-.39a5.94,5.94,0,0,1-1.32-.52,1.38,1.38,0,0,1-.75-1.14c0-.35,0-.71,0-1.07,0-1.13.06-2.25.1-3.38.09-2.38.18-4.75.28-7.13h-.06C778,216.85,778.11,213.1,778.27,209.36ZM399.81,237.84q-.26-7.58-.52-15.15-.26-7.22-.5-14.43c0-.36,0-.71-.06-1.07-.16-3.8-.33-7.6-.48-11.4-.06-1.48-.12-1.4,1.31-2.19a8.9,8.9,0,0,1,1.31-.56.94.94,0,0,1,1.16.55c.17.51.31,1,.44,1.55.81,3.34,1.63,6.69,2.42,10q1.07,4.51,2,9c.23,1.1.34,2.23.49,3.35a3.48,3.48,0,0,1-.65,2.53,7.76,7.76,0,0,0-.67,1.05,4.15,4.15,0,0,0-.31.83.86.86,0,0,0,.61,1,1.64,1.64,0,0,0,.88,0,4.67,4.67,0,0,0,1.79-1.13l9.48-8.13a10.41,10.41,0,0,0,.91-.85,3.05,3.05,0,0,0,.88-2.08,9.85,9.85,0,0,0-.21-2.3c-.58-2.56-1.23-5.09-2-7.59a107.09,107.09,0,0,0-5.35-14.73c-.65-1.4-1.38-2.76-2.12-4.12a12.67,12.67,0,0,0-1.11-1.6,1.08,1.08,0,0,0-1.14-.36,3.62,3.62,0,0,0-1,.38c-.52.29-1,.62-1.5,1l-6.21,4.18c-.4.26-.81.49-1.23.72a.47.47,0,0,1-.68-.33c-.1-.58-.22-1.17-.27-1.76-.15-1.71-.28-3.43-.41-5.15s-.27-3.56-.41-5.33a2.36,2.36,0,0,0-.1-.53c-.16-.48-.56-.7-1-.46a14.67,14.67,0,0,0-1.48,1l-6.5,5-12.43,9.58c-.61.47-1.19,1-1.77,1.49a.48.48,0,0,0,.15.75,2.37,2.37,0,0,0,.67.21c1.48.13,3,.26,4.44.35a22.72,22.72,0,0,1,3.19.35,1.81,1.81,0,0,1,1.52,1.54,10.36,10.36,0,0,1,.09,1.25c.21,7.25.43,14.49.62,21.74.11,4.34.18,8.68.28,13q.19,9.27.42,18.54c.13,5.83.27,11.65.39,17.48.11,5.23.2,10.46.3,15.69a10.89,10.89,0,0,1-.13,2.13,5.14,5.14,0,0,1-1.19,2.55c-.35.4-.73.79-1.1,1.17-1,1-1.94,1.93-2.9,2.91a9.11,9.11,0,0,0-.81.94.54.54,0,0,0,.39.91c.65,0,1.31.07,2,0,3.44-.15,6.89-.32,10.33-.49l.71,0c2.73-.18,5.46-.36,8.19-.52,2.13-.13,4.27-.23,6.41-.36a4.16,4.16,0,0,0,.69-.12c.19,0,.37-.44.27-.58a4.14,4.14,0,0,0-.55-.7c-.58-.51-1.19-1-1.77-1.5-1-.86-2-1.72-2.92-2.61a5.43,5.43,0,0,1-1.75-4.14c0-1.43-.06-2.86-.12-4.28-.08-2.32-.19-4.63-.28-7,0-.59-.05-1.19-.07-1.78q-.29-7.31-.56-14.61-.27-7.14-.5-14.26c0-.18,0-.36,0-.54ZM448,231.08V215.39q0-11.87,0-23.72c0-1,.08-2,.17-3a5.16,5.16,0,0,1,.78-2.34,2.82,2.82,0,0,1,1.33-1.15,1.34,1.34,0,0,1,1.73.46,8.48,8.48,0,0,1,.94,1.91,51,51,0,0,1,1.8,6.16,50.4,50.4,0,0,1,1.38,7.53c.23,2.88.09,5.71-1.6,8.22a2.16,2.16,0,0,0-.22.49,1.28,1.28,0,0,0,.29,1.32,1.27,1.27,0,0,0,1.34.22,3.39,3.39,0,0,0,.63-.32c.38-.28.76-.58,1.11-.89l10-8.64c.36-.32.71-.64,1.05-1a2.57,2.57,0,0,0,.69-1.42,2.81,2.81,0,0,0-.06-1.41c-.21-.68-.43-1.36-.68-2q-2.52-6.57-5-13.14c-1.09-2.83-2.18-5.65-3.3-8.47a17,17,0,0,0-.93-1.92,1,1,0,0,0-1.26-.37,9.32,9.32,0,0,0-1.21.74c-.76.57-1.49,1.18-2.23,1.77-1.44,1.16-2.87,2.33-4.31,3.47-.51.41-1,.79-1.58,1.16-.35.23-.7,0-.73-.42s-.07-1.07-.07-1.6q0-3.92,0-7.85c0-.53,0-1.07,0-1.6s.07-.89-.43-1.07-.65.19-.93.4-.27.24-.4.35c-1.1.92-2.17,1.85-3.29,2.74-2.45,2-4.93,3.92-7.39,5.89q-1.82,1.45-3.58,2.95a10.05,10.05,0,0,0-1.15,1.11,1.39,1.39,0,0,0,.24,2.28c.39.28.8.52,1.2.78a12.44,12.44,0,0,1,1,.72,2.74,2.74,0,0,1,1.1,2.15c0,.77,0,1.54,0,2.31-.11,9.16-.24,18.31-.34,27.47q-.25,24.69-.48,49.39c0,2.08-.06,4.16-.1,6.24a11.25,11.25,0,0,1-.41,3,10.47,10.47,0,0,1-2.09,3.9l-3.08,3.69a.71.71,0,0,0-.22.65c0,.19.36.3.77.26a5.51,5.51,0,0,0,.71-.09,72.47,72.47,0,0,1,9.5-1.49,48.45,48.45,0,0,1,9.25,0c1.13.11,2.25.18,3.38.26a3.14,3.14,0,0,0,.53,0,.57.57,0,0,0,.52-.86c-.12-.21-.25-.41-.38-.6-.9-1.33-1.79-2.67-2.7-4a6.39,6.39,0,0,1-1.15-3.51c0-.83,0-1.66,0-2.49V231.08Zm406.63,74c.12-.72.57-1.22.9-1.22h1.67v6.27c0,.29-.36.65-1,.65.63,0,1.84,0,2.85,0a.91.91,0,0,1-1-.72v-6.25h1.55c.5,0,.86.49,1,1.21,0-.27-.16-1.55-.16-1.55h-5.73A11.72,11.72,0,0,0,854.59,305.13Zm7.58-.86c0,.61,0,5.6,0,6s-1,.54-1,.54h2.29s-1-.11-1-.51v-5.8l3,6.22s2.63-5.37,3-6.11c0,.56,0,4.92,0,5.51s-.93.69-.93.69h2.74s-.92-.13-.92-.56v-6.11c0-.52,1-.56,1-.56h-1.82l-2.81,5.79-2.8-5.79h-1.83C861.45,303.6,862.17,303.66,862.17,304.27Zm96.71,272.3-58.09-86.64a19.91,19.91,0,0,1-1.37-20.11c1.44-2.94,6.73-10.44,16.62-10.44,11.36,0,23.55,16.12,23.55,16.12l21.56,25.17V429.82L951,440.57c-9.4-8.67-18.9-13.06-35-13.06-21.81,0-36.92,11.68-45,28.27a52.3,52.3,0,0,0,3.66,52.16l58.09,86.64a19.89,19.89,0,0,1,1.37,20.1c-1.44,3-7.14,11.2-17.39,11.2-16.76,0-27.87-21.13-32.5-27.47l-13.62-20.08v76.46L880,643.43C889.92,652.07,900,657,917.55,657s36.92-11.69,45-28.28A52.28,52.28,0,0,0,958.88,576.57Zm-385,104,12.51-11.23h-60l12.46,11.19V906.91l-12.46,11.18h60l-12.51-11.23ZM467,669.37l12.55,11.23V841.47l-65.12-172.1h-40V906.86l-12.5,11.23h59.88l-12.51-11.23V755.92L474,918.09h40.4V669.37Zm125.09,0v43l11.24-12.54h39.83v207l-12.5,11.22h60.08l-12.58-11.23v-207H718l11.23,12.54v-43Zm-287.64,0,12.5,11.23V857.3s1.43,32.4-27.25,32.4-27.24-32.4-27.24-32.4V680.6L275,669.37H214.75l12.49,11.22V859.48c0,18.32,8.76,63.19,62.44,63.19s62.45-44.87,62.45-63.19V669.37Zm398.64-14.58-24.86-93.27H664.15v83.6l10.76,9.67h-39l0-207.42-17.42-17.55h62.39c30.61,0,53.42,24.9,53.42,55.51V506c0,36.83-28,49.67-28,49.67l24.19,89.41h0l10.76,9.67ZM704.28,506V485.33c0-14-9.32-25.43-23.35-25.43H664.15v71.58h16.78C695,531.48,704.28,520.07,704.28,506ZM348,439.47l10.77-9.67H306.18L317,439.47V645.12l-10.77,9.67h52.55L348,645.12Zm-56.34,0,10.77-9.67h-52.1l10.77,9.67-17,136-29.7-136,10.77-9.67H179.78l10.72,9.63-29.95,136-17.05-136,10.78-9.67h-52.1l10.8,9.67,28,205.63-10.82,9.67h53.54L173,645.15l29.31-122.78,29.31,122.78-10.73,9.64h53.53l-10.82-9.67ZM837.53,699.88l17.75,28.18V669.37H746.49V906.88L734,918.09H855.28V856.56l-17.75,31.06H781.68V805.71h38.46l13.1,14.59V760.64l-13.1,14.59H781.68V699.84Zm18.82-214.55V599.2a55.71,55.71,0,0,1-55.58,55.59H752V447.22l-17.4-17.4h66.25A55.57,55.57,0,0,1,856.35,485.33Zm-30.07,0a25.46,25.46,0,0,0-25.44-25.42H780.9V624.63h19.87a25.47,25.47,0,0,0,25.44-25.44Z" transform="translate(-102.18 -137.33)"></path></svg>
